<?xml version="1.0" encoding="UTF-8"?>
<svg xmlns="http://www.w3.org/2000/svg" xmlns:xlink="http://www.w3.org/1999/xlink" viewBox="0 0 50 50" width="50px" height="50px">
<g id="surface2366382">
<path style=" stroke:none;fill-rule:nonzero;fill:rgb(100%,100%,100%);fill-opacity:1;" d="M 18.75 4.167969 C 10.71875 4.167969 4.167969 10.71875 4.167969 18.75 C 4.167969 26.78125 10.71875 33.332031 18.75 33.332031 C 22.390625 33.332031 25.71875 31.976562 28.28125 29.753906 L 29.167969 30.640625 L 29.167969 33.332031 L 41.667969 45.832031 L 45.832031 41.667969 L 33.332031 29.167969 L 30.640625 29.167969 L 29.753906 28.28125 C 31.976562 25.71875 33.332031 22.390625 33.332031 18.75 C 33.332031 10.71875 26.78125 4.167969 18.75 4.167969 Z M 18.75 8.332031 C 24.527344 8.332031 29.167969 12.972656 29.167969 18.75 C 29.167969 24.527344 24.527344 29.167969 18.75 29.167969 C 12.972656 29.167969 8.332031 24.527344 8.332031 18.75 C 8.332031 12.972656 12.972656 8.332031 18.75 8.332031 Z M 18.75 8.332031 "/>
</g>
</svg>
