<?xml version="1.0" encoding="UTF-8"?>
<svg xmlns="http://www.w3.org/2000/svg" xmlns:xlink="http://www.w3.org/1999/xlink" viewBox="0 0 50 50" width="50px" height="50px">
<g id="surface2191010">
<path style=" stroke:none;fill-rule:nonzero;fill:rgb(100%,100%,100%);fill-opacity:1;" d="M 25 4.167969 C 13.492188 4.167969 4.167969 13.492188 4.167969 25 C 4.167969 35.445312 11.859375 44.070312 21.886719 45.574219 L 21.886719 30.519531 L 16.730469 30.519531 L 16.730469 25.042969 L 21.886719 25.042969 L 21.886719 21.398438 C 21.886719 15.367188 24.824219 12.71875 29.839844 12.71875 C 32.242188 12.71875 33.511719 12.894531 34.113281 12.976562 L 34.113281 17.757812 L 30.691406 17.757812 C 28.5625 17.757812 27.820312 19.773438 27.820312 22.050781 L 27.820312 25.042969 L 34.058594 25.042969 L 33.210938 30.519531 L 27.820312 30.519531 L 27.820312 45.617188 C 37.988281 44.242188 45.832031 35.546875 45.832031 25 C 45.832031 13.492188 36.507812 4.167969 25 4.167969 Z M 25 4.167969 "/>
</g>
</svg>
