<?xml version="1.0" encoding="UTF-8"?>
<svg xmlns="http://www.w3.org/2000/svg" xmlns:xlink="http://www.w3.org/1999/xlink" viewBox="0 0 50 50" width="50px" height="50px">
<g id="surface2187677">
<path style=" stroke:none;fill-rule:nonzero;fill:rgb(100%,100%,100%);fill-opacity:1;" d="M 16.667969 6.25 C 10.914062 6.25 6.25 10.914062 6.25 16.667969 L 6.25 33.332031 C 6.25 39.085938 10.914062 43.75 16.667969 43.75 L 33.332031 43.75 C 39.085938 43.75 43.75 39.085938 43.75 33.332031 L 43.75 16.667969 C 43.75 10.914062 39.085938 6.25 33.332031 6.25 Z M 37.5 10.417969 C 38.648438 10.417969 39.582031 11.351562 39.582031 12.5 C 39.582031 13.648438 38.648438 14.582031 37.5 14.582031 C 36.351562 14.582031 35.417969 13.648438 35.417969 12.5 C 35.417969 11.351562 36.351562 10.417969 37.5 10.417969 Z M 25 14.582031 C 30.753906 14.582031 35.417969 19.246094 35.417969 25 C 35.417969 30.753906 30.753906 35.417969 25 35.417969 C 19.246094 35.417969 14.582031 30.753906 14.582031 25 C 14.582031 19.246094 19.246094 14.582031 25 14.582031 Z M 25 18.75 C 21.546875 18.75 18.75 21.546875 18.75 25 C 18.75 28.453125 21.546875 31.25 25 31.25 C 28.453125 31.25 31.25 28.453125 31.25 25 C 31.25 21.546875 28.453125 18.75 25 18.75 Z M 25 18.75 "/>
</g>
</svg>
